<?xml version="1.0" encoding="UTF-8"?>
<svg id="Layer_2" data-name="Layer 2" xmlns="http://www.w3.org/2000/svg" viewBox="0 0 407.64 335.81">
  <defs>
    <style>
      .cls-1 {
        fill: #675eaa;
      }

      .cls-1, .cls-2 {
        stroke-width: 0px;
      }

      .cls-2 {
        fill: #b0c4dd;
      }
    </style>
  </defs>
  <g id="Layer_1-2" data-name="Layer 1">
    <path class="cls-1" d="m2.87,118.13v-1.59h49.69v5.55c0,11.89,4.23,15.06,37.53,15.06,30.13,0,33.3-2.38,33.3-10.31,0-6.34-3.44-8.99-17.97-10.84l-55.5-7.4C16.87,104.13.22,86.42.22,57.88S22.16,0,86.12,0c56.29,0,83.25,24.58,83.25,64.22v1.59h-49.68v-3.96c0-12.69-5.55-16.91-38.85-16.91-25.37,0-30.92,3.44-30.92,11.1,0,5.55,3.17,8.19,12.69,9.51l55.5,8.19c43.34,6.34,54.97,28.54,54.97,51.27,0,30.39-23.26,57.35-82.98,57.35-54.18,0-87.21-19.29-87.21-64.22Z"/>
    <path class="cls-1" d="m0,335.81v-140.23h39.35v52.12h28.26l34.12-52.12h47.09l-48.56,68.86,47.51,71.37h-47.09l-32.65-49.81h-28.67v49.81H0Z"/>
    <path class="cls-2" d="m184.4,335.81v-140.23h39.35v140.23h-39.35Z"/>
    <path class="cls-2" d="m265.61,335.81v-140.23h89.16c30.35,0,45.42,11.93,45.42,33.91,0,18-9.42,30.77-34.95,31.81v2.09c28.05,1.05,41.44,14.02,41.44,33.49,0,23.65-13.6,38.93-47.09,38.93h-93.98Zm39.14-87.07h45.84c7.95,0,10.26-2.3,10.26-8.79s-3.14-9-11.3-9h-44.79v17.79Zm0,51.7h49.81c9.42,0,12.35-1.88,12.35-9.84s-2.72-9.63-12.35-9.63h-49.81v19.47Z"/>
    <path class="cls-1" d="m183.53,182.35L259.91,5.28h71.09l76.64,177.07h-57.08l-13.48-32.77h-84.04l-13.74,32.77h-55.76Zm88.27-77.44h47.04l-10.31-24.84-11.63-29.86h-3.44l-11.36,29.86-10.31,24.84Z"/>
  </g>
</svg>